<!--?xml version="1.0" standalone="no"?-->
              <svg id="sw-js-blob-svg" viewBox="0 0 100 100" xmlns="http://www.w3.org/2000/svg" version="1.1">
                    <defs> 
                        <linearGradient id="sw-gradient" x1="0" x2="1" y1="1" y2="0">
                            <stop id="stop1" stop-color="rgba(188.392, 216.295, 235.718, 1)" offset="0%"></stop>
                            <stop id="stop2" stop-color="rgba(243, 243, 246, 1)" offset="100%"></stop>
                        </linearGradient>
                    </defs>
                <path fill="url(#sw-gradient)" d="M26.7,-33.5C32.6,-26.8,34.1,-16.6,35.2,-6.8C36.2,3,36.9,12.3,32.6,18C28.3,23.6,19.2,25.6,10.8,27.9C2.4,30.3,-5.3,33,-14,32.4C-22.7,31.9,-32.4,28.1,-37.6,20.9C-42.8,13.6,-43.4,2.9,-41.5,-7.2C-39.5,-17.3,-35,-26.8,-27.7,-33.2C-20.3,-39.6,-10.2,-42.8,0.1,-42.9C10.4,-43.1,20.8,-40.1,26.7,-33.5Z" width="100%" height="100%" transform="translate(50 50)" stroke-width="0" style="transition: all 0.3s ease 0s;" stroke="url(#sw-gradient)"></path>
              </svg>