<!--?xml version="1.0" standalone="no"?-->
              <svg id="sw-js-blob-svg" viewBox="0 0 100 100" xmlns="http://www.w3.org/2000/svg" version="1.1">
                    <defs> 
                        <linearGradient id="sw-gradient" x1="0" x2="1" y1="1" y2="0">
                            <stop id="stop1" stop-color="rgba(27, 40, 69, 1)" offset="0%"></stop>
                            <stop id="stop2" stop-color="rgba(47, 149, 220, 1)" offset="100%"></stop>
                        </linearGradient>
                    </defs>
                <path fill="url(#sw-gradient)" d="M22.7,-26C30.6,-20.4,39,-14.4,42.4,-5.9C45.7,2.6,44,13.5,37.9,19.9C31.8,26.3,21.4,28.3,12.6,29.1C3.8,29.9,-3.5,29.7,-12.2,28.6C-20.9,27.6,-31.2,25.7,-35.1,19.8C-39.1,13.9,-36.9,3.9,-34.6,-5.5C-32.2,-14.9,-29.8,-23.7,-24,-29.7C-18.2,-35.6,-9.1,-38.7,-0.9,-37.7C7.4,-36.7,14.8,-31.6,22.7,-26Z" width="100%" height="100%" transform="translate(50 50)" stroke-width="0" style="transition: all 0.3s ease 0s;" stroke="url(#sw-gradient)"></path>
              </svg>