<!--?xml version="1.0" standalone="no"?-->
              <svg id="sw-js-blob-svg" viewBox="0 0 100 100" xmlns="http://www.w3.org/2000/svg" version="1.1">
                    <defs> 
                        <linearGradient id="sw-gradient" x1="0" x2="1" y1="1" y2="0">
                            <stop id="stop1" stop-color="rgba(27, 40, 69, 1)" offset="0%"></stop>
                            <stop id="stop2" stop-color="rgba(47, 149, 220, 1)" offset="100%"></stop>
                        </linearGradient>
                    </defs>
                <path fill="url(#sw-gradient)" d="M28.1,-31.9C34.8,-27.8,37.5,-17.5,36.8,-8.4C36.2,0.7,32.2,8.5,28.1,17C24.1,25.6,20.1,34.9,13.1,38.5C6.1,42.2,-3.9,40.2,-13.1,36.6C-22.3,33,-30.6,27.7,-33.5,20.4C-36.4,13.2,-33.9,3.8,-31.8,-5.2C-29.7,-14.1,-28,-22.8,-22.8,-27.1C-17.6,-31.4,-8.8,-31.4,1,-32.5C10.7,-33.6,21.4,-35.9,28.1,-31.9Z" width="100%" height="100%" transform="translate(50 50)" stroke-width="0" style="transition: all 0.3s ease 0s;" stroke="url(#sw-gradient)"></path>
              </svg>