<?xml version="1.0" encoding="iso-8859-1"?>
<!-- Generator: Adobe Illustrator 19.0.0, SVG Export Plug-In . SVG Version: 6.00 Build 0)  -->
<svg version="1.1" id="Layer_1" xmlns="http://www.w3.org/2000/svg" xmlns:xlink="http://www.w3.org/1999/xlink" x="0px" y="0px"
	 viewBox="0 0 512 512" style="enable-background:new 0 0 512 512;" xml:space="preserve">
<g>
	<g>
		<path d="M435.2,0c-7.074,0-12.8,5.726-12.8,12.8c0,7.074,5.726,12.8,12.8,12.8c35.439,0,38.4,56.9,38.4,115.2
			c0,80.026-44.049,166.4-115.2,166.4s-115.2-86.374-115.2-166.4c0-58.3,2.961-115.2,38.4-115.2c7.074,0,12.8-5.726,12.8-12.8
			c0-7.074-5.726-12.8-12.8-12.8c-64,0-64,88.149-64,140.8c0,89.685,47.633,182.135,128,191.113V358.4c0,70.579-57.421,128-128,128
			s-128-57.421-128-128v-90.897c29.175-5.948,51.2-31.787,51.2-62.703c0-35.302-28.715-64-64-64s-64,28.698-64,64
			c0,30.916,22.025,56.755,51.2,62.703V358.4C64,443.102,132.898,512,217.6,512s153.6-68.898,153.6-153.6v-26.487
			c80.367-8.977,128-101.427,128-191.113C499.2,88.149,499.2,0,435.2,0z M38.4,204.8c0-21.171,17.229-38.4,38.4-38.4
			s38.4,17.229,38.4,38.4c0,21.171-17.229,38.4-38.4,38.4S38.4,225.971,38.4,204.8z"/>
	</g>
</g>
<g>
</g>
<g>
</g>
<g>
</g>
<g>
</g>
<g>
</g>
<g>
</g>
<g>
</g>
<g>
</g>
<g>
</g>
<g>
</g>
<g>
</g>
<g>
</g>
<g>
</g>
<g>
</g>
<g>
</g>
</svg>
